<?xml version="1.0" encoding="utf-8"?>
<!-- Generator: Adobe Illustrator 25.4.1, SVG Export Plug-In . SVG Version: 6.00 Build 0)  -->
<svg version="1.1" id="_1" xmlns="http://www.w3.org/2000/svg" xmlns:xlink="http://www.w3.org/1999/xlink" x="0px" y="0px"
	 viewBox="0 0 543.2 119.5" style="enable-background:new 0 0 543.2 119.5;" xml:space="preserve">
<style type="text/css">
	.st0{fill:none;stroke:#E8E8E8;stroke-miterlimit:10;}
</style>
<path class="st0" d="M0.1,73.4c55.3,13.3,173-15,236.8-21.6c2.8-0.3,5.4-0.5,8-0.7c6.6-0.6,13.3-0.7,19.9-0.4
	c2.2,0.1,4.3,0.4,6.5,0.9c8.9,1.9,13.9,8.1,16.2,16c0.5,1.8,0.9,3.6,1.1,5.4c4.1,29.8-21.6,73.8-25.3,22.6
	c-0.4-5.2-0.6-10.2-0.6-15.1c0-4.7,0.1-9.1,0.4-13.4c0.3-5.8,1-11.3,1.7-16.4c1-6.5,2.4-13,4.4-19.3c1.3-4.4,3-8.7,5.1-12.8
	c6.6-12.7,13.7-13.9,14.8,0.3c0.5,6.6-0.6,10.5-2.8,12.6c-3.4,3.2-9.7,2-17.1-0.1c-2.4-0.7-4.8-1.5-7.4-2.2
	c-7.3-2.2-15.2-4.3-22.5-3.6c-15.3,1.3-12,15-2.4,26.3c1.3,1.6,2.8,3,4.3,4.4c3.9,3.7,8.6,6.7,13.6,8.8c2.7,1,5.5,1.6,8.3,2
	c8.1,1.1,16.3,1.2,24.4,0.5c21.9-1.8,41.2-9.2,18.8-22c-7.1-4-13.8-8.7-20-14c-4.5-3.8-8.5-8.1-12-12.9c-0.7-1-1.4-2.1-2-3.2
	c-4.9-8.7-3.4-14.9,5-14.9c4.5,0,1.3,6-5,14.9c-2.9,4.1-6.6,8.8-10.5,13.7c-5.5,7-11.5,14.6-16.9,21.9c-1.3,1.8-2.5,3.5-3.7,5.2
	C230,72.5,224,85.9,238.4,85.5c5.2-0.1,13.5-2.1,24.4-5.1c7.5-2.1,16.2-4.6,25.9-7.5c58.8-17.3,155.8-45,254.5-34"/>
</svg>
