<?xml version="1.0" encoding="utf-8"?>
<!-- Generator: Adobe Illustrator 27.2.0, SVG Export Plug-In . SVG Version: 6.00 Build 0)  -->
<svg version="1.1" id="_4" xmlns="http://www.w3.org/2000/svg" xmlns:xlink="http://www.w3.org/1999/xlink" x="0px" y="0px"
	 viewBox="0 0 1920.4 125.8" style="enable-background:new 0 0 1920.4 125.8;" xml:space="preserve">
<style type="text/css">
	.st0{fill:none;stroke:#231F20;stroke-miterlimit:10;}
</style>
<path class="st0" d="M0.3,82c0,0,81.9-49.5,107.7-17s69.8,87.5,133.8,44.5s46-81,29-69s28,74,54,54s-20-72,9-78s65,35,18,41
	s-60.3,69.9-33,46c40-35,105,25,72-11s-110-74-97-71s17-4,13,26s48,51,83,32S495,22.5,548.4,65s137,22.7,163.7,5.6
	s148.4-23.1,91-5.6s-45.3-8.5-57.3-35.5s-55,59-15,70s32-48,40-73s59,60,16,67s-69-44-67-64s37,8,14,17s-61,31-4,39
	S835,46.7,896.3,70.6s238.4-28.1,280.4-19.1s-3,113-8,44s23.5-106.1,25.8-76.5s-26.8,4.6-49.8,6.6s-4,32,15.5,39.5
	s86.5,0.5,51.5-19.5s-46-45-29-45s-75,86-39,85s220-87,382-29s15,76,16,29s69-14,53-46s-87.7-9-84.3,25.5s142.1,20.5,128.2,0
	s-13.9,34.5-4.9,25.5s-78-84-53-77s-22,50,1,56s23-31,48-33s171,87,290.5,46.5"/>
</svg>
